<?xml version="1.0" encoding="UTF-8"?>
<svg width="600" height="400" xmlns="http://www.w3.org/2000/svg">
    <!-- Background -->
    <rect width="100%" height="100%" fill="#f8f9fa"/>
    
    <!-- Title -->
    <text x="300" y="30" text-anchor="middle" font-family="Arial" font-size="20" fill="#2c3e50">Bubble Sort: Step by Step</text>
    
    <!-- Initial Array -->
    <g transform="translate(50, 80)">
        <text x="0" y="-10" font-family="Arial" font-size="14" fill="#7f8c8d">Initial Array</text>
        <rect x="0" y="0" width="40" height="40" fill="#e74c3c" stroke="#c0392b"/>
        <text x="20" y="25" text-anchor="middle" font-family="Arial" font-size="14" fill="white">64</text>
        <rect x="60" y="0" width="40" height="40" fill="#3498db" stroke="#2980b9"/>
        <text x="80" y="25" text-anchor="middle" font-family="Arial" font-size="14" fill="white">34</text>
        <rect x="120" y="0" width="40" height="40" fill="#2ecc71" stroke="#27ae60"/>
        <text x="140" y="25" text-anchor="middle" font-family="Arial" font-size="14" fill="white">25</text>
        <rect x="180" y="0" width="40" height="40" fill="#f1c40f" stroke="#f39c12"/>
        <text x="200" y="25" text-anchor="middle" font-family="Arial" font-size="14" fill="white">12</text>
        <rect x="240" y="0" width="40" height="40" fill="#9b59b6" stroke="#8e44ad"/>
        <text x="260" y="25" text-anchor="middle" font-family="Arial" font-size="14" fill="white">22</text>
    </g>
    
    <!-- First Pass -->
    <g transform="translate(50, 160)">
        <text x="0" y="-10" font-family="Arial" font-size="14" fill="#7f8c8d">After First Pass</text>
        <rect x="0" y="0" width="40" height="40" fill="#3498db" stroke="#2980b9"/>
        <text x="20" y="25" text-anchor="middle" font-family="Arial" font-size="14" fill="white">34</text>
        <rect x="60" y="0" width="40" height="40" fill="#2ecc71" stroke="#27ae60"/>
        <text x="80" y="25" text-anchor="middle" font-family="Arial" font-size="14" fill="white">25</text>
        <rect x="120" y="0" width="40" height="40" fill="#f1c40f" stroke="#f39c12"/>
        <text x="140" y="25" text-anchor="middle" font-family="Arial" font-size="14" fill="white">12</text>
        <rect x="180" y="0" width="40" height="40" fill="#9b59b6" stroke="#8e44ad"/>
        <text x="200" y="25" text-anchor="middle" font-family="Arial" font-size="14" fill="white">22</text>
        <rect x="240" y="0" width="40" height="40" fill="#e74c3c" stroke="#c0392b"/>
        <text x="260" y="25" text-anchor="middle" font-family="Arial" font-size="14" fill="white">64</text>
    </g>
    
    <!-- Second Pass -->
    <g transform="translate(50, 240)">
        <text x="0" y="-10" font-family="Arial" font-size="14" fill="#7f8c8d">After Second Pass</text>
        <rect x="0" y="0" width="40" height="40" fill="#2ecc71" stroke="#27ae60"/>
        <text x="20" y="25" text-anchor="middle" font-family="Arial" font-size="14" fill="white">25</text>
        <rect x="60" y="0" width="40" height="40" fill="#f1c40f" stroke="#f39c12"/>
        <text x="80" y="25" text-anchor="middle" font-family="Arial" font-size="14" fill="white">12</text>
        <rect x="120" y="0" width="40" height="40" fill="#9b59b6" stroke="#8e44ad"/>
        <text x="140" y="25" text-anchor="middle" font-family="Arial" font-size="14" fill="white">22</text>
        <rect x="180" y="0" width="40" height="40" fill="#3498db" stroke="#2980b9"/>
        <text x="200" y="25" text-anchor="middle" font-family="Arial" font-size="14" fill="white">34</text>
        <rect x="240" y="0" width="40" height="40" fill="#e74c3c" stroke="#c0392b"/>
        <text x="260" y="25" text-anchor="middle" font-family="Arial" font-size="14" fill="white">64</text>
    </g>
    
    <!-- Final Array -->
    <g transform="translate(50, 320)">
        <text x="0" y="-10" font-family="Arial" font-size="14" fill="#7f8c8d">Final Sorted Array</text>
        <rect x="0" y="0" width="40" height="40" fill="#f1c40f" stroke="#f39c12"/>
        <text x="20" y="25" text-anchor="middle" font-family="Arial" font-size="14" fill="white">12</text>
        <rect x="60" y="0" width="40" height="40" fill="#9b59b6" stroke="#8e44ad"/>
        <text x="80" y="25" text-anchor="middle" font-family="Arial" font-size="14" fill="white">22</text>
        <rect x="120" y="0" width="40" height="40" fill="#2ecc71" stroke="#27ae60"/>
        <text x="140" y="25" text-anchor="middle" font-family="Arial" font-size="14" fill="white">25</text>
        <rect x="180" y="0" width="40" height="40" fill="#3498db" stroke="#2980b9"/>
        <text x="200" y="25" text-anchor="middle" font-family="Arial" font-size="14" fill="white">34</text>
        <rect x="240" y="0" width="40" height="40" fill="#e74c3c" stroke="#c0392b"/>
        <text x="260" y="25" text-anchor="middle" font-family="Arial" font-size="14" fill="white">64</text>
    </g>
    
    <!-- Arrows showing movement -->
    <g transform="translate(300, 80)">
        <text x="20" y="40" font-family="Arial" font-size="12" fill="#7f8c8d">Compare and swap</text>
        <text x="20" y="120" font-family="Arial" font-size="12" fill="#7f8c8d">Largest bubbles up</text>
        <text x="20" y="200" font-family="Arial" font-size="12" fill="#7f8c8d">Second pass</text>
        <text x="20" y="280" font-family="Arial" font-size="12" fill="#7f8c8d">Final order</text>
    </g>
</svg> 